<svg width="420" height="64" viewBox="0 0 420 64" fill="none" xmlns="http://www.w3.org/2000/svg">
<path d="M7.61908 63.2875H1.72281C1.23084 63.2875 0 63.2875 0 62.5807C0 62.1125 0.246906 61.874 0.983939 61.6372C6.3956 59.9852 7.61724 57.1582 7.61724 53.1562V10.9403C7.61724 7.1663 6.38639 4.33754 0.983939 2.45935C0.246906 2.45935 0 1.9876 0 1.7526C0 0.810861 1.23084 1.04585 1.72281 1.04585H50.4057C61.4704 1.04585 70.5709 9.52684 70.5709 20.144C70.5709 30.7611 61.4704 39.2315 50.4057 39.2315H25.8164V53.6156C26.0633 57.3879 27.2905 59.9764 32.4497 61.6319C33.1867 61.8687 33.4318 62.1054 33.4318 62.5754C33.4318 63.2822 32.2028 63.2822 31.7108 63.2822H7.61908V63.2875ZM370.571 40.4153H382.128L370.571 21.5504L369.338 19.6634L359.02 40.4153H370.571ZM370.571 0.803793H378.441L411.388 56.4603C412.374 57.8738 413.599 59.2873 415.073 59.994C416.302 60.9393 417.776 61.1778 419.005 61.6461C419.499 61.8846 419.989 62.1213 419.989 62.5913C419.989 63.2981 418.76 63.2981 418.266 63.2981H389.006C388.516 63.2981 387.036 63.2981 387.036 62.5913C387.036 62.1213 387.53 61.8846 388.026 61.6461C389.5 61.1778 390.48 60.4693 390.974 59.0558C391.468 57.402 390.974 56.4638 389.745 54.3365C388.075 50.9335 386.356 47.5541 384.586 44.1982H357.045L356.801 44.6682C356.553 45.6135 354.59 48.9087 353.116 52.4513C351.152 56.2235 350.413 57.1653 350.905 59.0523C351.154 60.4658 352.379 61.1725 353.853 61.6443C354.349 61.8828 354.59 62.1196 354.59 62.5878C354.59 63.2946 353.358 63.2946 352.867 63.2946H339.341C338.851 63.2946 337.618 63.2946 337.618 62.5878C337.618 62.1196 337.867 61.8811 338.602 61.6443C339.835 61.1743 341.305 60.9375 342.536 59.9923C344.01 59.2855 345.243 57.872 346.221 56.4585L347.944 52.9248L366.633 15.4211L363.925 10.9403C361.47 7.1663 359.009 4.80929 356.304 3.39403C355.075 2.68728 353.844 2.68728 352.619 2.21552C351.882 1.97876 351.633 1.742 351.882 1.27025C351.882 0.798492 352.372 1.03525 352.619 0.798492H370.573L370.571 0.803793ZM297.052 63.049H298.036C343.284 63.049 342.794 1.03172 298.036 1.03172H260.906C260.169 1.03172 258.942 0.794959 258.942 1.73847C258.942 1.97346 259.432 2.44522 259.922 2.44522C265.332 4.09548 266.555 6.92601 266.806 10.4651V53.628C266.563 57.3985 265.332 59.9887 259.922 61.6425C259.432 61.8811 258.942 62.1178 258.942 62.5878C258.942 63.2946 260.171 63.2946 260.906 63.2946H284.758V63.056H297.052V63.049ZM297.052 5.51604C300.374 5.5286 303.557 6.79941 305.907 9.05173C308.257 11.3041 309.583 14.3554 309.598 17.5414V46.3096C309.584 49.4957 308.257 52.5473 305.907 54.7998C303.557 57.0522 300.375 58.3229 297.052 58.3349H284.749V5.51604H297.052ZM203.358 40.4153H214.915L203.358 21.5504L202.128 19.6634L191.809 40.4153H203.358ZM203.358 0.803793H211.466L244.417 56.4603C245.154 57.8738 246.385 59.2873 247.86 59.994C249.088 60.9393 250.567 61.1778 252.041 61.6461C252.531 61.8846 253.022 62.1213 253.022 62.5913C253.022 63.2981 251.547 63.2981 251.057 63.2981H221.806C221.313 63.2981 220.084 63.2981 220.084 62.5913C220.084 62.1213 220.327 61.8846 221.064 61.6461C222.296 61.1778 223.522 60.4693 223.771 59.0558C224.261 57.402 223.771 56.4638 222.787 54.3365C221.064 50.8028 219.101 47.4987 217.38 44.1982H189.832L189.587 44.6682C189.342 45.6135 187.619 48.9087 185.902 52.4513C184.181 56.2235 183.199 57.1653 183.691 59.0523C184.183 60.4658 185.165 61.1725 186.639 61.6443C187.129 61.8828 187.621 62.1196 187.621 62.5878C187.621 63.2946 186.392 63.2946 185.657 63.2946H172.374C171.882 63.2946 170.406 63.2946 170.406 62.5878C170.406 62.1196 170.898 61.8811 171.39 61.6443C172.864 61.1743 174.095 60.9375 175.572 59.9923C176.799 59.2855 178.277 57.872 179.012 56.4585L180.733 52.9248L199.67 15.4211L196.968 10.9403C194.51 7.1663 191.809 4.80929 189.346 3.39403C187.872 2.68728 186.886 2.68728 185.41 2.21552C184.916 1.97876 184.424 1.742 184.673 1.27025C184.922 0.798492 185.41 1.03525 185.659 0.798492H203.362L203.358 0.803793ZM122.209 42.0673C127.866 43.9508 134.752 44.4208 140.16 42.7741L161.556 60.4605L163.277 61.874C163.371 61.9664 163.442 62.0779 163.485 62.2002C163.528 62.3226 163.542 62.4526 163.525 62.5807C163.525 63.2875 162.295 63.2875 161.801 63.2875H139.179L122.213 49.8469L108.44 39.2333V53.8559C108.688 57.3897 110.162 59.9852 115.325 61.6302C115.817 61.8687 116.062 62.1037 116.062 62.5737C116.062 63.2804 114.832 63.2804 114.338 63.2804H84.5856C83.8485 63.2804 82.6177 63.2804 82.6177 62.5737C82.6177 62.1037 83.1115 61.8669 83.5998 61.6302C89.4961 59.7467 90.2331 56.9161 90.4855 52.4424V11.6471C90.2386 7.4066 89.5016 4.33754 83.5998 2.45935C83.1078 2.45935 82.6177 1.9876 82.6177 1.7526C82.6177 0.810861 83.8485 1.04585 84.5856 1.04585H132.537C135.142 1.03516 137.723 1.51656 140.134 2.46258C142.545 3.4086 144.737 4.8007 146.587 6.55938C148.437 8.31807 149.907 10.4089 150.914 12.7125C151.921 15.016 152.444 17.4872 152.455 19.985V20.144C152.474 25.1858 150.404 30.0284 146.701 33.6075C142.998 37.1867 137.964 39.2095 132.706 39.2315H117.045C117.782 40.645 119.503 41.1185 120.977 41.827C121.47 41.827 121.714 42.0673 122.207 42.0673H122.209ZM122.209 34.7578H124.186C130.578 34.7578 135.99 28.1532 135.99 19.6634C135.979 11.4103 130.569 4.80929 124.186 4.80929H108.438V34.7578H122.209ZM39.8311 4.81106H25.8164V34.7596H42.0477C48.681 34.7596 53.8403 28.155 53.8403 19.6652C53.8403 11.4139 48.681 4.81106 42.0477 4.81106H39.8311Z" fill="white"/>
</svg>
