<svg width="270" height="40" viewBox="0 0 270 40" fill="none" xmlns="http://www.w3.org/2000/svg">
<path d="M4.89811 39.9932H1.10755C0.791278 39.9932 0 39.9932 0 39.5409C0 39.2412 0.158729 39.0886 0.632549 38.937C4.11157 37.8797 4.89692 36.0704 4.89692 33.5092V6.49083C4.89692 4.07542 4.10564 2.265 0.632549 1.06296C0.158729 1.06296 0 0.761032 0 0.610635C0 0.00791566 0.791278 0.158313 1.10755 0.158313H32.4045C39.5177 0.158313 45.3682 5.58618 45.3682 12.3812C45.3682 19.1762 39.5177 24.5973 32.4045 24.5973H16.5967V33.8032C16.7554 36.2175 17.5443 37.8741 20.8611 38.9336C21.3349 39.0852 21.4924 39.2367 21.4924 39.5375C21.4924 39.9898 20.7023 39.9898 20.3861 39.9898H4.89811V39.9932ZM238.23 25.3549H245.66L238.23 13.2813L237.438 12.0736L230.804 25.3549H238.23ZM238.23 0.00339242H243.29L264.471 35.6238C265.104 36.5284 265.892 37.4331 266.84 37.8854C267.63 38.4904 268.577 38.643 269.367 38.9427C269.685 39.0954 270 39.2469 270 39.5477C270 40 269.21 40 268.892 40H250.082C249.767 40 248.816 40 248.816 39.5477C248.816 39.2469 249.133 39.0954 249.452 38.9427C250.399 38.643 251.029 38.1896 251.347 37.2849C251.664 36.2265 251.347 35.626 250.557 34.2646C249.484 32.0866 248.378 29.9238 247.24 27.776H229.535L229.378 28.0768C229.218 28.6818 227.957 30.7907 227.009 33.058C225.746 35.4723 225.271 36.075 225.588 37.2827C225.748 38.1873 226.535 38.6396 227.483 38.9416C227.802 39.0942 227.957 39.2457 227.957 39.5454C227.957 39.9977 227.164 39.9977 226.849 39.9977H218.153C217.838 39.9977 217.046 39.9977 217.046 39.5454C217.046 39.2457 217.206 39.0931 217.678 38.9416C218.471 38.6408 219.416 38.4892 220.207 37.8843C221.155 37.4319 221.948 36.5273 222.577 35.6226L223.684 33.361L235.699 9.35855L233.958 6.49083C232.38 4.07542 230.797 2.56693 229.058 1.66115C228.268 1.20883 227.477 1.20883 226.689 0.906906C226.216 0.755378 226.056 0.60385 226.216 0.301925C226.216 0 226.531 0.151528 226.689 0H238.232L238.23 0.00339242ZM190.967 39.8406H191.599C220.688 39.8406 220.373 0.149266 191.599 0.149266H167.73C167.256 0.149266 166.467 -0.00226161 166.467 0.601589C166.467 0.751986 166.782 1.05391 167.097 1.05391C170.575 2.11008 171.361 3.92163 171.523 6.18664V33.8111C171.366 36.2242 170.575 37.882 167.097 38.9404C166.782 39.0931 166.467 39.2446 166.467 39.5454C166.467 39.9977 167.257 39.9977 167.73 39.9977H183.064V39.8451H190.967V39.8406ZM190.967 3.01925C193.103 3.02729 195.149 3.84061 196.66 5.28211C198.17 6.7236 199.023 8.67651 199.033 10.7155V29.1273C199.023 31.1664 198.171 33.1195 196.66 34.561C195.149 36.0026 193.103 36.8158 190.967 36.8236H183.058V3.01925H190.967ZM130.734 25.3549H138.163L130.734 13.2813L129.943 12.0736L123.309 25.3549H130.734ZM130.734 0.00339242H135.946L157.129 35.6238C157.603 36.5284 158.394 37.4331 159.343 37.8854C160.132 38.4904 161.083 38.643 162.031 38.9427C162.346 39.0954 162.661 39.2469 162.661 39.5477C162.661 40 161.713 40 161.398 40H142.594C142.276 40 141.486 40 141.486 39.5477C141.486 39.2469 141.642 39.0954 142.116 38.9427C142.909 38.643 143.696 38.1896 143.856 37.2849C144.171 36.2265 143.856 35.626 143.224 34.2646C142.116 32.0029 140.855 29.8883 139.748 27.776H122.038L121.881 28.0768C121.723 28.6818 120.615 30.7907 119.511 33.058C118.405 35.4723 117.774 36.075 118.09 37.2827C118.406 38.1873 119.038 38.6396 119.985 38.9416C120.3 39.0942 120.617 39.2457 120.617 39.5454C120.617 39.9977 119.827 39.9977 119.354 39.9977H110.814C110.498 39.9977 109.549 39.9977 109.549 39.5454C109.549 39.2457 109.866 39.0931 110.182 38.9416C111.13 38.6408 111.921 38.4892 112.871 37.8843C113.66 37.4319 114.61 36.5273 115.082 35.6226L116.189 33.361L128.362 9.35855L126.626 6.49083C125.046 4.07542 123.309 2.56693 121.725 1.66115C120.778 1.20883 120.144 1.20883 119.195 0.906906C118.878 0.755378 118.561 0.60385 118.721 0.301925C118.881 0 119.195 0.151528 119.355 0H130.736L130.734 0.00339242ZM78.5652 26.4122C82.2017 27.6177 86.6284 27.9185 90.105 26.8646L103.86 38.1839L104.966 39.0886C105.027 39.1477 105.073 39.2191 105.1 39.2974C105.128 39.3757 105.137 39.4589 105.126 39.5409C105.126 39.9932 104.335 39.9932 104.018 39.9932H89.4748L78.5675 31.3912L69.713 24.5984V33.957C69.8729 36.2186 70.8206 37.8797 74.1397 38.9325C74.456 39.0852 74.6135 39.2356 74.6135 39.5364C74.6135 39.9887 73.8222 39.9887 73.5048 39.9887H54.3779C53.904 39.9887 53.1128 39.9887 53.1128 39.5364C53.1128 39.2356 53.4302 39.084 53.7441 38.9325C57.5347 37.7271 58.0085 35.9155 58.1708 33.0523V6.94315C58.0121 4.22921 57.5382 2.265 53.7441 1.06296C53.4279 1.06296 53.1128 0.761032 53.1128 0.610635C53.1128 0.00791566 53.904 0.158313 54.3779 0.158313H85.2045C86.8791 0.151467 88.5386 0.459569 90.0884 1.06502C91.6382 1.67048 93.0478 2.56143 94.2369 3.68699C95.426 4.81256 96.3711 6.1507 97.0185 7.62499C97.6658 9.09929 98.0025 10.6809 98.0095 12.2794V12.3812C98.0215 15.608 96.6909 18.7072 94.3103 20.9979C91.9296 23.2886 88.6936 24.5832 85.3135 24.5973H75.2449C75.7187 25.5019 76.8251 25.805 77.7727 26.2584C78.0902 26.2584 78.2465 26.4122 78.564 26.4122H78.5652ZM78.5652 21.7341H79.8362C83.9454 21.7341 87.4244 17.5071 87.4244 12.0736C87.4173 6.79162 83.9394 2.56693 79.8362 2.56693H69.7118V21.7341H78.5652ZM25.6064 2.56806H16.5967V21.7352H27.0314C31.2958 21.7352 34.6125 17.5083 34.6125 12.0747C34.6125 6.79388 31.2958 2.56806 27.0314 2.56806H25.6064Z" fill="white"/>
</svg>
